<svg xmlns="http://www.w3.org/2000/svg" viewBox="0 0 817.12 119.03"><defs><style>.cls-1{fill:#fff;}</style></defs><g id="Layer_2" data-name="Layer 2"><g id="Layer_1-2" data-name="Layer 1"><path class="cls-1" d="M796.53,94.83c1.84-2,4.27-3.66,5.42-6,3.31-6.68,5.95-13.69,9.2-20.4.83-1.71,3-2.79,4.47-4.17.5,2,2,4.45,1.34,5.91-4.49,9.79-9.41,19.39-14.25,29a12.54,12.54,0,0,1-2.16,2.74c-4.06,4.36-8.28,8.61-15,6.52-5.54-1.71-9-7.63-9.36-15.18-.06-1.33,0-2.66,0-5.15-2,2.31-3.31,3.88-4.67,5.42-6.22,7-13.59,12.25-23,14.09-12,2.35-19.57-2.38-24.09-15.56-1.81,2.55-3.31,4.79-4.95,6.93a44.17,44.17,0,0,1-4.2,4.94c-3.58,3.48-7.6,6.46-12.89,4.54-5.69-2.06-9.21-6.67-9.1-12.55.15-7.93,1.48-15.84,2.38-23.75.62-5.38,1.37-10.74,2.07-16.12l-1.69-1c-1.85,1.58-4,2.91-5.52,4.79-8.5,10.68-13,23.09-15.34,36.4-.39,2.29-.78,4.59-1,6.91-.54,5.5-2,6.6-7.28,5.48-4.24-.9-6.66-3.58-7.55-7.7-.41-1.88-.58-3.82-.94-6.37-2.68,3.31-4.77,6.25-7.23,8.84-3.53,3.74-7.62,6.9-13.17,5.17s-8.21-6-9.42-11.34c-.25-1.12-.44-2.26-.71-3.65-2.94,3.21-5.53,6.45-8.53,9.23-10.26,9.5-23.89,8.59-27.44-8.1-2.62,3.19-4.87,6.36-7.54,9.1-3.59,3.69-7.78,6.72-13.3,4.54s-9.12-6.9-8.8-12.76c.54-9.75,2.26-19.43,3.38-29.16.41-3.52.52-7.07.76-10.61L564.71,55c-2.13,2.1-4.58,4-6.35,6.33-9,12.07-13.11,26-15.17,40.71-.37,2.67,1.1,6.59-3.68,6.84-4.44.23-8.79-.8-10.2-5.43-1.33-4.36-1.41-9.1-2.1-14.12-1.06,1.21-2.25,2.59-3.46,4-6.08,6.9-13.2,12.15-22.38,14.18-13.11,2.9-22.95-3.08-24.78-16.25-2.31-16.57,2.37-31.4,14.1-43.54,6-6.23,13.52-8.23,22-5.67,10.72,3.25,14.67,12.57,9.28,22.37-5,9.14-13.05,14.68-23,17-4.11,1-5,2.65-4.52,6.46,1.37,10.45,6.68,13.48,15.82,8a46.93,46.93,0,0,0,21.52-28.3c2.08-7.51,2.93-15.34,4.4-23,.2-1.07.78-2.94,1.27-3,4.36-.26,8.83-.77,13.07,0,3.42.59,4,4,3.71,7.28-.08,1-.11,2-.2,3.63,3.08-3,5.54-5.87,8.43-8.18,8.69-6.92,20.11-2.86,21.4,8.21.8,6.94-.53,14.19-1.31,21.25-.74,6.68-2,13.31-3.06,20l1.88,1.12c1.61-1.3,3.88-2.27,4.71-4,3.49-7.09,7.18-14.19,9.59-21.68,2.47-7.71,3.54-15.88,5.38-24.64-2.27.35-4.27.31-6,1-2.66,1.09-4.61.74-5.77-1.89-1.27-2.87-.52-5.55,2.39-6.67,3.34-1.28,7-1.84,10.62-2.75,2.64-9.57,3.17-10,11-9.2,6.07.65,7.8,3,8.24,11.61,3.64,1.13,9.55.61,8.17,7.11s-6.75.22-10.54,3.9c-2.11,14.67-9.11,30.05-8.41,46.76l1.52,1.11c2.57-1.57,5.94-2.57,7.54-4.83,4.09-5.75,8.44-11.69,10.72-18.24,2.64-7.6,3.41-15.9,4.55-24,1-7,2.92-9,9.46-8.22,6.33.73,10.06,4.86,9,10.78-1.47,8.52-3.54,16.93-5.1,25.44C647.44,82.2,646.82,88,646,93.84l2,1c1.71-1.52,4-2.73,5-4.63,3.28-6.31,6.86-12.63,8.85-19.37,2.52-8.56,3.58-17.55,5.34-26.34.22-1.08.81-2.93,1.31-3,4.36-.25,8.85-.79,13.06,0,3.7.7,3.95,4.44,3.65,7.8-.07.81,0,1.64,0,2.55,2.67-2.51,5.14-5.14,7.91-7.39,9.13-7.42,20.6-3.26,21.84,8.49.72,6.8-.61,13.86-1.4,20.75-.76,6.68-2,13.3-3,20l1.83,1c1.54-1.17,3.69-2,4.5-3.55,3-5.68,6.26-11.37,8.08-17.45,3-9.89,6.4-19.29,14.14-26.48,6.21-5.78,13.44-7.75,21.69-5.23,10.69,3.26,14.61,12.61,9.19,22.41-5.14,9.3-13.37,14.78-23.49,17.14-3.81.88-4.36,2.61-4,5.85,1.12,10.8,6.56,13.94,15.91,8.4,10.41-6.16,18-15.41,21-26.92,4.2-16,6.84-32.53,9.79-48.9,1.23-6.87,2-7.79,10.06-7.11,6,.5,9.34,3.78,8.47,9.34-1.39,8.87-3.29,17.66-5.07,26.47-2.6,12.88-5.34,25.73-7.87,38.62-.43,2.16-.06,4.47-.06,6.71ZM509.82,51c-6.36,2.61-14,16.58-13.19,23.8C505.84,71.31,512.92,58.84,509.82,51Zm233.51,24.3c10.81-4.16,18.23-17.79,13.78-24.8C748.85,56.58,746.65,65.64,743.33,75.34Z"/><path class="cls-1" d="M195.12,73c7.55-1.33,11.73-5.1,13.28-12.59,1-5,1.61-10.19,2.9-15.16.42-1.65,2.25-3.81,3.79-4.16,10.4-2.31,15.34,2.63,13.35,13.09-2.12,11.11-4.46,22.18-6.56,33.29a34.86,34.86,0,0,0,0,6.22l1.53.68c2.14-2.16,4.6-4.08,6.38-6.5C239,75.32,243.2,60.88,245,45.64c.44-3.68.6-6.89,5.6-7.14,6.28-.31,10.68,1.52,11.35,6.42a41.13,41.13,0,0,1-.54,12.8c-1.72,9.49-4.05,18.86-5.87,28.33-.5,2.61-.08,5.4-.08,8.11l1.44.67c1.59-1.47,3.57-2.69,4.71-4.46,5.32-8.29,9.75-16.77,9.74-27.22,0-17.06,19.46-30.49,36-25.4,7.28,2.24,11.62,7.37,11,13-.69,6-6.65,10.86-14,11.33-1.64.1-3.29,0-5.66,0,1.6-6,7.45-10.34,4.92-16.82C293.18,46.13,286.61,57,291.47,66c2.82,5.2,6.84,9.75,10.68,15.1,6.79-4.32,13.13-8.17,19.24-12.37,1.33-.92,1.71-3.14,2.7-4.65,3.8-5.79,7.11-12,11.72-17.1,2.67-2.94,7.28-4.76,11.33-5.65,7.63-1.68,16.52,2.22,19.58,8.11,3.77,7.25.82,13.62-3.66,19.38a34.85,34.85,0,0,1-20.84,12.85c-3.68.78-4.09,2.51-3.82,5.53,1,11,6.58,14.21,16.17,8.56,10.64-6.27,16.61-16.49,21.88-27.23,1.11-2.25,1.33-6.89,5.11-5.22s.46,5-.44,7.32c-4.36,11.15-10.21,21.51-19.91,28.82a47,47,0,0,1-15.41,7.73c-14.29,3.93-24.74-4-25.67-18.89-.21-3.31,0-6.65,0-10.95l-13,8.28c.64,1.21,1.13,2.21,1.69,3.17C316,101,312,113.05,298.38,117.31a45.57,45.57,0,0,1-18.61,1.33c-8.95-1.08-12-8.29-7.6-16.3a30,30,0,0,1,5.22-6.62,76,76,0,0,1,6.87-5.46L275,78.4c-2.44,4.8-4.37,9.38-7,13.53-2.81,4.48-5.77,9.06-9.51,12.73-7.87,7.71-17.54,4.77-20.68-5.91A54.83,54.83,0,0,1,236.73,93c-3.9,4.17-7.37,8.9-11.8,12.42-8.05,6.38-18.17,2.71-20.63-7.25a40.73,40.73,0,0,1-.68-10.88,97,97,0,0,1,1.32-10.19c-4,1-7.82,1.76-11.46,3-1.08.37-1.75,2.1-2.48,3.28-3.71,6.06-6.54,12.91-11.23,18.07-9.93,10.93-25.07,8.18-30.9-5.4-6.23-14.53-4.83-29.28,4.39-41.71,4.5-6.06,12.52-10.47,19.84-13.22C183,37.41,193.88,46.28,195,57.82,195.53,62.72,195.12,67.71,195.12,73Zm-31.19-2.25c0,6.92-.63,13.51.19,19.91.74,5.83,5,7.11,9.12,2.79,3.6-3.8,6.15-8.6,8.92-12.6ZM184.35,73c.27-3.26,1-6.12.6-8.79-.52-3.32-1.38-7-3.29-9.57-1.2-1.64-4.74-2.5-6.94-2.11-1.29.23-2.69,3.57-2.86,5.61C171.29,64.77,176.06,70.44,184.35,73ZM288.21,94.55c-3.43,3.43-7.07,6.47-9.89,10.15-1.08,1.42-1.13,4.89-.1,6.3s4.44,2.43,6,1.76c2.77-1.21,5.77-3.37,7.13-6C293.4,102.93,292.27,98.78,288.21,94.55ZM339.3,75.26c10.61-3.75,18.13-17.33,13.94-24.77C344.84,56.47,342.74,65.61,339.3,75.26Z"/><path class="cls-1" d="M24.89,56.45C19.5,62.34,13.45,64,7.3,61.42,2,59.22-.3,54.57,0,46.9.84,28,19.32,4.83,36.83.75c11-2.56,18.64,1.4,20.25,12.46,1.32,9,.27,18.41.27,29,3.46-6.63,6-12.21,9.18-17.42A159.55,159.55,0,0,1,77.3,9.27c3.5-4.46,8.1-7.07,14-4.68,6.4,2.58,10.55,7.27,10.72,14.27.12,5.12-.88,10.26-1.41,15.39a16.12,16.12,0,0,0,.11,6.21c1.53-3,2.84-6.17,4.63-9,5.09-8.17,9.89-16.59,15.73-24.2,5.61-7.3,11-8.37,17.38-5.36,7.13,3.37,10.87,10.3,9.22,18.6-5.55,27.89-11.35,55.73-17,83.59a42.71,42.71,0,0,0-1,6.91c-.17,4.33-2,5.44-6.13,4.19-7.15-2.17-11.26-6.36-10.43-13.74,1.12-10,3.5-19.93,5.44-29.87,3.28-16.82,6.65-33.61,9.94-50.42a46.61,46.61,0,0,0,.49-4.88l-1.17-.9c-2.09,2-4.73,3.77-6.18,6.2-5.09,8.57-10.29,17.14-14.49,26.15C99.83,63.37,92.56,79.13,89.58,96.36c-.55,3.2-2.4,3.06-4.7,2.68C76.49,97.66,71.69,90,73.5,80.48c1.56-8.17,3.52-16.26,5-24.44,1.84-10.15,3.42-20.34,5-30.53a41.49,41.49,0,0,0,0-6.21l-1.22-.59a73.29,73.29,0,0,0-5.62,6.5C65,42.38,56.6,61.22,50.35,81c-2.84,9-4.5,18.36-6.42,27.61-.64,3.11-2,3.79-4.86,3.15-8.47-1.92-13.26-9.08-11.36-18.16,2.7-12.86,6.12-25.57,8.74-38.44C38.51,45,40,34.81,41.38,24.6a31.11,31.11,0,0,0-.65-10.39c-.79-3.72-3.47-4.69-6.84-2.73a15.11,15.11,0,0,0-3.1,2.5A35.7,35.7,0,0,0,24.89,56.45Z"/><path class="cls-1" d="M411.1,83.52c-.14,1.69-.28,3.17-.4,4.64-.94,11.52,6.2,18.84,17.75,18C436,105.68,441.72,102,445,95.08c3.07-6.5,1.52-12-4.53-16.08a102.68,102.68,0,0,0-9.14-5.09c-4.67-2.55-9.58-4.72-14-7.67-12.9-8.69-16.7-22.58-10.41-36.8,7.63-17.26,28.32-29,46.82-26.51,19.24,2.56,30,25.2,19.69,41.66-3.61,5.78-8.83,9-15.78,8.78-5.95-.2-9.78-3.57-12.43-8.91,2.49-1.56,5-2.9,7.23-4.56,6-4.44,9.54-10.11,8.8-17.91-.67-7-5-10.8-12-10.37-9.8.58-19.09,9.12-22.5,20.65-3.07,10.42-.46,18.23,8.94,24.67,5.06,3.47,10.66,6.13,16,9.24a87.93,87.93,0,0,1,8.86,5.57c10.63,8.08,11.57,20.7,2.24,30.31-7.54,7.78-17.4,10.86-27.68,12.62-11.13,1.9-22.26,1.91-32.88-2.66-5.89-2.53-10.77-6.19-11.24-13.35C390.2,87.5,397.81,81.57,411.1,83.52Z"/><path class="cls-1" d="M649.2,35c-8-.31-11.33-3-11-8.95.41-7.93,1.84-10,6.73-9.91,8.21.21,11.8,3,11.49,9C656,33.31,654.58,35.22,649.2,35Z"/></g></g></svg>